HIERARCHY
ROOT joint_Root
{
	OFFSET 0.0 0.0 0.0
	CHANNELS 6 Xposition Yposition Zposition Zrotation Xrotation Yrotation 
	JOINT Hips
	{
		OFFSET -17.1583 93.1646 452.98
		CHANNELS 6 Xposition Yposition Zposition Zrotation Xrotation Yrotation 
		JOINT Spine
		{
			OFFSET 15.7357 0.0 0.0
			CHANNELS 6 Xposition Yposition Zposition Zrotation Xrotation Yrotation 
			JOINT Chest
			{
				OFFSET 8.98455 -0.406207 0.0
				CHANNELS 6 Xposition Yposition Zposition Zrotation Xrotation Yrotation 
				JOINT Neck
				{
					OFFSET 16.3773 0.0 0.0
					CHANNELS 6 Xposition Yposition Zposition Zrotation Xrotation Yrotation 
					JOINT Head
					{
						OFFSET 6.45672 0.0 0.0
						CHANNELS 6 Xposition Yposition Zposition Zrotation Xrotation Yrotation 
						End Site
						{
							OFFSET 0.0 0.0 0.0
						}
					}
				}
				JOINT Shoulder_L
				{
					OFFSET 12.9942 -0.242716 4.98039
					CHANNELS 6 Xposition Yposition Zposition Zrotation Xrotation Yrotation 
					JOINT UpperArm_L
					{
						OFFSET 5.34809 0.0 0.0
						CHANNELS 6 Xposition Yposition Zposition Zrotation Xrotation Yrotation 
						JOINT LowerArm_L
						{
							OFFSET 24.3286 1.87007e-05 0.0
							CHANNELS 6 Xposition Yposition Zposition Zrotation Xrotation Yrotation 
							JOINT Hand_L
							{
								OFFSET 22.2916 0.0 0.0
								CHANNELS 6 Xposition Yposition Zposition Zrotation Xrotation Yrotation 
								End Site
								{
									OFFSET 0.0 0.0 0.0
								}
							}
						}
					}
				}
				JOINT Shoulder_R
				{
					OFFSET 12.9945 -0.242716 -4.98039
					CHANNELS 6 Xposition Yposition Zposition Zrotation Xrotation Yrotation 
					JOINT UpperArm_R
					{
						OFFSET -5.34813 0.0 0.0
						CHANNELS 6 Xposition Yposition Zposition Zrotation Xrotation Yrotation 
						JOINT LowerArm_R
						{
							OFFSET -24.3289 0.000322201 0.0
							CHANNELS 6 Xposition Yposition Zposition Zrotation Xrotation Yrotation 
							JOINT Hand_R
							{
								OFFSET -22.2915 -0.000108084 0.0
								CHANNELS 6 Xposition Yposition Zposition Zrotation Xrotation Yrotation 
								End Site
								{
									OFFSET 0.0 0.0 0.0
								}
							}
						}
					}
				}
			}
		}
		JOINT UpperLeg_L
		{
			OFFSET -2.19248 -6.46944 0.0
			CHANNELS 6 Xposition Yposition Zposition Zrotation Xrotation Yrotation 
			JOINT LowerLeg_L
			{
				OFFSET 39.0811 0.0 -1.23785e-05
				CHANNELS 6 Xposition Yposition Zposition Zrotation Xrotation Yrotation 
				JOINT Foot_L
				{
					OFFSET 40.9854 0.0 -1.26872e-05
					CHANNELS 6 Xposition Yposition Zposition Zrotation Xrotation Yrotation 
					JOINT Toes_L
					{
						OFFSET 11.7543 0.0 0.0
						CHANNELS 6 Xposition Yposition Zposition Zrotation Xrotation Yrotation 
						End Site
						{
							OFFSET 0.0 0.0 0.0
						}
					}
				}
			}
		}
		JOINT UpperLeg_R
		{
			OFFSET -2.19251 6.46944 0.0
			CHANNELS 6 Xposition Yposition Zposition Zrotation Xrotation Yrotation 
			JOINT LowerLeg_R
			{
				OFFSET -39.0811 -0.00228153 -0.0401928
				CHANNELS 6 Xposition Yposition Zposition Zrotation Xrotation Yrotation 
				JOINT Foot_R
				{
					OFFSET -40.9854 0.0 0.0
					CHANNELS 6 Xposition Yposition Zposition Zrotation Xrotation Yrotation 
					JOINT Toes_R
					{
						OFFSET -11.7543 0.0 0.0
						CHANNELS 6 Xposition Yposition Zposition Zrotation Xrotation Yrotation 
						End Site
						{
							OFFSET 0.0 0.0 0.0
						}
					}
				}
			}
		}
	}
}
MOTION
Frames:	9
Frame Time:	0.0333333
0.000000 0.000000 0.000000 0.000000 0.000000 -0.000000 -3.745720 91.794200 -1.069470 84.316800 1.255960 6.256990 15.735700 0.000005 -0.000001 67.125900 86.287700 -65.155600 8.984550 -0.406207 -0.000000 -0.870000 -3.033830 3.916590 16.377300 -0.000001 -0.000001 9.005990 2.879240 5.493800 6.456720 -0.000001 -0.000000 -7.741090 2.280080 17.638600 12.994200 -0.242716 4.980390 -92.968700 8.385660 -70.424500 5.348090 -0.000007 -0.000001 -71.787700 25.986100 0.561489 24.328600 0.000019 0.000005 10.849200 26.229300 -23.443100 22.291600 -0.000001 0.000005 -1.981530 4.981000 7.721000 12.994500 -0.242716 -4.980390 86.743600 7.622510 -66.784200 -5.348130 -0.000001 -0.000004 -69.757300 -4.251580 -14.000600 -24.328900 0.000322 -0.000009 9.223190 -11.544100 -140.943000 -22.291500 -0.000108 -0.000004 37.853200 5.649350 -14.953900 -2.192480 -6.469440 -0.000000 -172.795000 7.041470 -2.558450 39.081100 -0.000007 -0.000012 0.390319 -0.703079 29.038100 40.985400 -0.000006 -0.000013 -0.881401 2.843850 -76.341500 11.754300 -0.000000 0.000003 0.000220 0.163837 -9.931850 -2.192510 6.469440 -0.000001 -170.480000 9.970420 -175.098000 -39.081100 -0.002282 -0.040193 0.134459 -0.446231 16.376300 -40.985400 0.000008 0.000006 5.782600 2.900460 -71.639600 -11.754300 -0.000006 -0.000006 -0.011138 0.279622 -5.210660
0.000000 0.000000 0.000000 0.000000 0.000000 -0.000000 -3.748570 91.799200 -1.093370 84.323400 1.281710 6.242740 15.735700 0.000005 -0.000001 67.527200 86.288700 -65.591900 8.984550 -0.406207 -0.000000 -0.853818 -2.982140 3.847280 16.377300 -0.000001 -0.000001 9.013140 2.859550 5.393620 6.456720 -0.000001 -0.000000 -7.671200 2.262210 17.559300 12.994200 -0.242716 4.980390 -92.960300 8.358870 -70.418300 5.348090 -0.000007 -0.000001 -71.863400 25.914000 0.491120 24.328600 0.000019 0.000005 10.878100 26.225500 -23.502900 22.291600 -0.000001 0.000005 -1.990280 4.977480 7.795440 12.994500 -0.242716 -4.980390 86.756600 7.603170 -66.814500 -5.348130 -0.000001 -0.000004 -69.747500 -4.099030 -13.944200 -24.328900 0.000322 -0.000009 9.300780 -11.580600 -140.791000 -22.291500 -0.000108 -0.000004 37.703900 5.649420 -14.962000 -2.192480 -6.469440 -0.000000 -172.794000 7.012600 -2.587720 39.081100 -0.000007 -0.000012 0.389566 -0.702081 29.025700 40.985400 -0.000006 -0.000013 -0.876590 2.867000 -76.331800 11.754300 -0.000000 0.000003 0.000130 0.165403 -9.868280 -2.192510 6.469440 -0.000001 -170.471000 9.906300 -175.132000 -39.081100 -0.002282 -0.040193 0.133536 -0.443017 16.378900 -40.985400 0.000008 0.000006 5.722290 2.840450 -71.607400 -11.754300 -0.000006 -0.000006 -0.011265 0.280529 -5.173560
0.000000 0.000000 0.000000 0.000000 0.000000 -0.000000 -3.738410 91.800100 -1.107620 84.365600 1.322250 6.218140 15.735700 0.000005 -0.000001 67.941600 86.296000 -66.040100 8.984550 -0.406207 -0.000000 -0.848897 -2.924370 3.780420 16.377300 -0.000001 -0.000001 9.017940 2.908310 5.339090 6.456720 -0.000001 -0.000000 -7.580770 2.305820 17.401800 12.994200 -0.242716 4.980390 -92.965400 8.376890 -70.425900 5.348090 -0.000007 -0.000001 -71.908500 25.905200 0.404251 24.328600 0.000019 0.000005 10.880400 26.340000 -23.422700 22.291600 -0.000001 0.000005 -2.052220 4.980780 7.725410 12.994500 -0.242716 -4.980390 86.770100 7.590170 -66.866300 -5.348130 -0.000001 -0.000004 -69.676500 -4.020630 -13.955500 -24.328900 0.000322 -0.000009 9.407730 -11.638100 -140.601000 -22.291500 -0.000108 -0.000004 37.616100 5.648640 -14.887700 -2.192480 -6.469440 -0.000000 -172.835000 7.021050 -2.631290 39.081100 -0.000007 -0.000012 0.386286 -0.696630 29.009600 40.985400 -0.000006 -0.000013 -0.863546 2.894760 -76.276400 11.754300 -0.000000 0.000003 0.000175 0.164624 -9.899910 -2.192510 6.469440 -0.000001 -170.522000 10.044500 -175.167000 -39.081100 -0.002282 -0.040193 0.136345 -0.452633 16.376800 -40.985400 0.000008 0.000006 5.868420 2.897000 -71.648900 -11.754300 -0.000006 -0.000006 -0.011300 0.280773 -5.163560
0.000000 0.000000 0.000000 0.000000 0.000000 -0.000000 -3.746150 91.802600 -1.127520 84.333400 1.392910 6.250830 15.735700 0.000005 -0.000001 68.089700 86.280000 -66.200300 8.984550 -0.406207 -0.000000 -0.812381 -2.917090 3.757150 16.377300 -0.000001 -0.000001 9.011320 2.909920 5.375700 6.456720 -0.000001 -0.000000 -7.470700 2.432040 17.210900 12.994200 -0.242716 4.980390 -92.993900 8.442220 -70.391800 5.348090 -0.000007 -0.000001 -71.929100 26.010200 0.430806 24.328600 0.000019 0.000005 10.885300 26.361500 -23.416500 22.291600 -0.000001 0.000005 -1.949490 4.979290 7.756510 12.994500 -0.242716 -4.980390 86.790000 7.564600 -66.925100 -5.348130 -0.000001 -0.000004 -69.576900 -3.895230 -13.919200 -24.328900 0.000322 -0.000009 9.129340 -11.231700 -140.475000 -22.291500 -0.000108 -0.000004 37.294400 5.647130 -14.752100 -2.192480 -6.469440 -0.000000 -172.792000 7.044150 -2.639190 39.081100 -0.000007 -0.000012 0.385964 -0.695527 29.027800 40.985400 -0.000006 -0.000013 -0.860437 2.946390 -76.265900 11.754300 -0.000000 0.000003 0.000103 0.165865 -9.849520 -2.192510 6.469440 -0.000001 -170.476000 9.965200 -175.146000 -39.081100 -0.002282 -0.040193 0.134365 -0.446561 16.353800 -40.985400 0.000008 0.000006 5.794870 2.779850 -71.599100 -11.754300 -0.000006 -0.000006 -0.011280 0.280630 -5.169400
0.000000 0.000000 0.000000 0.000000 0.000000 -0.000000 -3.750660 91.799400 -1.152380 84.337400 1.473700 6.237000 15.735700 0.000005 -0.000001 68.260200 86.279100 -66.394700 8.984550 -0.406207 -0.000000 -0.803541 -2.895260 3.709610 16.377300 -0.000001 -0.000001 8.998920 2.955080 5.308020 6.456720 -0.000001 -0.000000 -7.431630 2.435830 17.164500 12.994200 -0.242716 4.980390 -92.987000 8.437950 -70.424700 5.348090 -0.000007 -0.000001 -72.027600 26.017800 0.510677 24.328600 0.000019 0.000005 10.897900 26.367800 -23.436600 22.291600 -0.000001 0.000005 -1.990280 4.978380 7.775740 12.994500 -0.242716 -4.980390 86.791100 7.566180 -66.936300 -5.348130 -0.000001 -0.000004 -69.491700 -3.729180 -13.993300 -24.328900 0.000322 -0.000009 9.108100 -11.086700 -140.180000 -22.291500 -0.000108 -0.000004 36.943700 5.643830 -14.451800 -2.192480 -6.469440 -0.000000 -172.796000 7.118210 -2.706110 39.081100 -0.000007 -0.000012 0.386534 -0.695484 29.065200 40.985400 -0.000006 -0.000013 -0.864287 2.953970 -76.271100 11.754300 -0.000000 0.000003 0.000060 0.166613 -9.819140 -2.192510 6.469440 -0.000001 -170.467000 10.053400 -175.198000 -39.081100 -0.002282 -0.040193 0.136368 -0.452826 16.373000 -40.985400 0.000008 0.000006 5.860860 2.734930 -71.615100 -11.754300 -0.000006 -0.000006 -0.011073 0.279157 -5.229730
0.000000 0.000000 0.000000 0.000000 0.000000 -0.000000 -3.749970 91.803300 -1.174560 84.313600 1.492640 6.247530 15.735700 0.000005 -0.000001 68.367700 86.273500 -66.505200 8.984550 -0.406207 -0.000000 -0.788129 -2.885970 3.704090 16.377300 -0.000001 -0.000001 8.986510 2.967210 5.267550 6.456720 -0.000001 -0.000000 -7.316970 2.476070 16.981000 12.994200 -0.242716 4.980390 -93.000800 8.462780 -70.393700 5.348090 -0.000007 -0.000001 -72.061100 26.226700 0.626164 24.328600 0.000019 0.000005 10.914700 26.401900 -23.444500 22.291600 -0.000001 0.000005 -2.009890 4.982000 7.699890 12.994500 -0.242716 -4.980390 86.786200 7.576150 -66.931700 -5.348130 -0.000001 -0.000004 -69.322600 -3.398180 -14.166800 -24.328900 0.000322 -0.000009 9.221790 -11.026400 -139.672000 -22.291500 -0.000108 -0.000004 36.580800 5.643150 -14.393200 -2.192480 -6.469440 -0.000000 -172.770000 7.114920 -2.720400 39.081100 -0.000007 -0.000012 0.387774 -0.697562 29.070600 40.985400 -0.000006 -0.000013 -0.862139 2.971030 -76.245300 11.754300 -0.000000 0.000003 0.000185 0.164449 -9.907000 -2.192510 6.469440 -0.000001 -170.455000 10.084700 -175.212000 -39.081100 -0.002282 -0.040193 0.133811 -0.443779 16.385000 -40.985400 0.000008 0.000006 5.749550 2.751500 -71.594600 -11.754300 -0.000006 -0.000006 -0.011161 0.279783 -5.204080
0.000000 0.000000 0.000000 0.000000 0.000000 -0.000000 -3.749790 91.802900 -1.183620 84.318500 1.493100 6.262840 15.735700 0.000005 -0.000001 68.510900 86.257900 -66.664200 8.984550 -0.406207 -0.000000 -0.752798 -2.878330 3.673520 16.377300 -0.000001 -0.000001 9.014100 2.938850 5.184020 6.456720 -0.000001 -0.000000 -7.242850 2.502560 16.746100 12.994200 -0.242716 4.980390 -92.998200 8.455770 -70.394600 5.348090 -0.000007 -0.000001 -72.118800 26.228500 0.722601 24.328600 0.000019 0.000005 10.932500 26.502400 -23.405800 22.291600 -0.000001 0.000005 -2.148780 4.976180 7.822040 12.994500 -0.242716 -4.980390 86.785700 7.589260 -66.964000 -5.348130 -0.000001 -0.000004 -69.214100 -2.981890 -14.379700 -24.328900 0.000322 -0.000009 9.241420 -10.772500 -138.959000 -22.291500 -0.000108 -0.000004 36.289900 5.640880 -14.200900 -2.192480 -6.469440 -0.000000 -172.779000 7.136290 -2.717070 39.081100 -0.000007 -0.000012 0.386831 -0.695717 29.075700 40.985400 -0.000006 -0.000013 -0.859612 2.975520 -76.233300 11.754300 -0.000000 0.000003 0.000207 0.164065 -9.922600 -2.192510 6.469440 -0.000001 -170.471000 10.090400 -175.211000 -39.081100 -0.002282 -0.040193 0.134489 -0.445298 16.412300 -40.985400 0.000008 0.000006 5.750020 2.800660 -71.610500 -11.754300 -0.000006 -0.000006 -0.011062 0.279073 -5.233140
0.000000 0.000000 0.000000 0.000000 0.000000 -0.000000 -3.737440 91.803800 -1.209490 84.309800 1.456860 6.264940 15.735700 0.000005 -0.000001 68.660700 86.262100 -66.809000 8.984550 -0.406207 -0.000000 -0.753701 -2.857430 3.683640 16.377300 -0.000001 -0.000001 9.093360 2.914830 5.022830 6.456720 -0.000001 -0.000000 -7.176110 2.521340 16.380700 12.994200 -0.242716 4.980390 -93.015600 8.500920 -70.385400 5.348090 -0.000007 -0.000001 -72.145500 26.194600 0.878317 24.328600 0.000019 0.000005 10.939100 26.674600 -23.293600 22.291600 -0.000001 0.000005 -2.003780 4.982620 7.686900 12.994500 -0.242716 -4.980390 86.795800 7.577240 -66.996200 -5.348130 -0.000001 -0.000004 -69.061700 -2.577590 -14.496300 -24.328900 0.000322 -0.000009 9.155890 -10.288500 -137.935000 -22.291500 -0.000108 -0.000004 35.605500 5.636210 -13.804500 -2.192480 -6.469440 -0.000000 -172.777000 7.098210 -2.728540 39.081100 -0.000007 -0.000012 0.390383 -0.701642 29.091900 40.985400 -0.000006 -0.000013 -0.858198 2.958160 -76.242800 11.754300 -0.000000 0.000003 0.000118 0.165607 -9.860000 -2.192510 6.469440 -0.000001 -170.450000 10.076800 -175.221000 -39.081100 -0.002282 -0.040193 0.135277 -0.448600 16.390700 -40.985400 0.000008 0.000006 5.823700 2.743450 -71.569800 -11.754300 -0.000006 -0.000006 -0.011210 0.280132 -5.189790
0.000000 0.000000 0.000000 0.000000 0.000000 -0.000000 -3.714370 91.813700 -1.231650 84.330100 1.421690 6.290700 15.735700 0.000005 -0.000001 69.050600 86.252100 -67.187400 8.984550 -0.406207 -0.000000 -0.717091 -2.817350 3.707450 16.377300 -0.000001 -0.000001 9.035660 2.954000 4.803360 6.456720 -0.000001 -0.000000 -7.101950 2.577210 15.867500 12.994200 -0.242716 4.980390 -93.043400 8.561410 -70.346300 5.348090 -0.000007 -0.000001 -72.164300 26.137800 0.950670 24.328600 0.000019 0.000005 10.835200 26.655400 -23.104500 22.291600 -0.000001 0.000005 -2.021100 4.981110 7.718740 12.994500 -0.242716 -4.980390 86.796600 7.557510 -66.947900 -5.348130 -0.000001 -0.000004 -68.904600 -2.226010 -14.547600 -24.328900 0.000322 -0.000009 9.426280 -10.051400 -136.430000 -22.291500 -0.000108 -0.000004 34.711600 5.628590 -13.228500 -2.192480 -6.469440 -0.000000 -172.811000 7.076230 -2.684880 39.081100 -0.000007 -0.000012 0.382922 -0.689715 29.039400 40.985400 -0.000006 -0.000013 -0.845702 2.945910 -76.208400 11.754300 -0.000000 0.000003 0.000076 0.166337 -9.830350 -2.192510 6.469440 -0.000001 -170.502000 10.034600 -175.207000 -39.081100 -0.002282 -0.040193 0.133727 -0.443143 16.397200 -40.985400 0.000008 0.000006 5.761120 2.792050 -71.531900 -11.754300 -0.000006 -0.000006 -0.010978 0.278474 -5.257650
